<svg width="0" height="0" class="hidden">
    <symbol fill="none" xmlns="http://www.w3.org/2000/svg" viewBox="0 0 221 19" id="logo">
        <path d="M0.368 19V1.72H2.312V9.376H16.112V1.72H18.08V19H16.112V11.344H2.312V19H0.368ZM23.5661 19C23.0381 19 22.5501 18.872 22.1021 18.616C21.6701 18.344 21.3181 17.992 21.0461 17.56C20.7901 17.112 20.6621 16.624 20.6621 16.096V11.056H32.8541V7.984C32.8541 7.728 32.7581 7.512 32.5661 7.336C32.3901 7.144 32.1741 7.048 31.9181 7.048H20.6621V5.08H31.9181C32.4621 5.08 32.9501 5.216 33.3821 5.488C33.8301 5.744 34.1821 6.096 34.4381 6.544C34.7101 6.976 34.8461 7.456 34.8461 7.984V19H23.5661ZM23.5661 17.032H32.8541V13.024H22.6301V16.096C22.6301 16.352 22.7181 16.576 22.8941 16.768C23.0861 16.944 23.3101 17.032 23.5661 17.032ZM37.2089 19V7.984C37.2089 7.456 37.3369 6.976 37.5929 6.544C37.8649 6.096 38.2169 5.744 38.6489 5.488C39.0969 5.216 39.5849 5.08 40.1129 5.08H47.9369V7.048H40.1129C39.8569 7.048 39.6329 7.144 39.4409 7.336C39.2649 7.512 39.1769 7.728 39.1769 7.984V19H37.2089ZM51.7222 19C51.1782 19 50.6822 18.872 50.2342 18.616C49.8022 18.344 49.4502 17.992 49.1782 17.56C48.9222 17.112 48.7942 16.624 48.7942 16.096V7.984C48.7942 7.456 48.9222 6.976 49.1782 6.544C49.4502 6.096 49.8022 5.744 50.2342 5.488C50.6822 5.216 51.1782 5.08 51.7222 5.08H61.0102V0.519999H62.9782V19H51.7222ZM51.7222 17.032H60.0742C60.3302 17.032 60.5462 16.944 60.7222 16.768C60.9142 16.576 61.0102 16.352 61.0102 16.096V7.984C61.0102 7.728 60.9142 7.512 60.7222 7.336C60.5462 7.144 60.3302 7.048 60.0742 7.048H51.7222C51.4662 7.048 51.2422 7.144 51.0502 7.336C50.8742 7.512 50.7862 7.728 50.7862 7.984V16.096C50.7862 16.352 50.8742 16.576 51.0502 16.768C51.2422 16.944 51.4662 17.032 51.7222 17.032ZM70.562 19L65.09 5.08H67.202L71.426 15.448L75.914 5.08H78.506L83.282 15.424L87.218 5.08H89.354L84.098 19H82.394L77.21 7.504L72.29 19H70.562ZM94.1129 19C93.5849 19 93.0969 18.872 92.6489 18.616C92.2169 18.344 91.8649 17.992 91.5929 17.56C91.3369 17.112 91.2089 16.624 91.2089 16.096V11.056H103.401V7.984C103.401 7.728 103.305 7.512 103.113 7.336C102.937 7.144 102.721 7.048 102.465 7.048H91.2089V5.08H102.465C103.009 5.08 103.497 5.216 103.929 5.488C104.377 5.744 104.729 6.096 104.985 6.544C105.257 6.976 105.393 7.456 105.393 7.984V19H94.1129ZM94.1129 17.032H103.401V13.024H93.1769V16.096C93.1769 16.352 93.2649 16.576 93.4409 16.768C93.6329 16.944 93.8569 17.032 94.1129 17.032ZM107.756 19V7.984C107.756 7.456 107.884 6.976 108.14 6.544C108.412 6.096 108.764 5.744 109.196 5.488C109.644 5.216 110.132 5.08 110.66 5.08H118.484V7.048H110.66C110.404 7.048 110.18 7.144 109.988 7.336C109.812 7.512 109.724 7.728 109.724 7.984V19H107.756ZM122.917 19C122.389 19 121.901 18.872 121.453 18.616C121.021 18.344 120.669 17.992 120.397 17.56C120.141 17.112 120.013 16.624 120.013 16.096V7.984C120.013 7.456 120.141 6.976 120.397 6.544C120.669 6.096 121.021 5.744 121.453 5.488C121.901 5.216 122.389 5.08 122.917 5.08H131.269C131.813 5.08 132.301 5.216 132.733 5.488C133.181 5.744 133.533 6.096 133.789 6.544C134.061 6.976 134.197 7.456 134.197 7.984V13.024H121.981V16.096C121.981 16.352 122.069 16.576 122.245 16.768C122.437 16.944 122.661 17.032 122.917 17.032H134.197V19H122.917ZM121.981 11.056H132.205V7.984C132.205 7.728 132.109 7.512 131.917 7.336C131.741 7.144 131.525 7.048 131.269 7.048H122.917C122.661 7.048 122.437 7.144 122.245 7.336C122.069 7.512 121.981 7.728 121.981 7.984V11.056ZM136.822 19V1.72H150.478C151.006 1.72 151.486 1.848 151.918 2.104C152.366 2.36 152.718 2.712 152.974 3.16C153.23 3.592 153.358 4.072 153.358 4.6V8.272C153.358 8.496 153.326 8.72 153.262 8.944C153.214 9.152 153.142 9.352 153.046 9.544C153.398 10.072 153.662 10.528 153.838 10.912C154.014 11.296 154.102 11.688 154.102 12.088V16.12C154.102 16.648 153.974 17.136 153.718 17.584C153.462 18.016 153.11 18.36 152.662 18.616C152.23 18.872 151.75 19 151.222 19H136.822ZM139.702 17.056H151.222C151.478 17.056 151.694 16.968 151.87 16.792C152.062 16.6 152.158 16.376 152.158 16.12V12.088C152.158 11.832 152.062 11.616 151.87 11.44C151.694 11.248 151.478 11.152 151.222 11.152H139.702C139.446 11.152 139.222 11.248 139.03 11.44C138.854 11.616 138.766 11.832 138.766 12.088V16.12C138.766 16.376 138.854 16.6 139.03 16.792C139.222 16.968 139.446 17.056 139.702 17.056ZM139.702 9.208H150.478C150.734 9.208 150.95 9.12 151.126 8.944C151.302 8.752 151.39 8.528 151.39 8.272V4.6C151.39 4.344 151.302 4.128 151.126 3.952C150.95 3.76 150.734 3.664 150.478 3.664H139.702C139.446 3.664 139.222 3.76 139.03 3.952C138.854 4.128 138.766 4.344 138.766 4.6V8.272C138.766 8.528 138.854 8.752 139.03 8.944C139.222 9.12 139.446 9.208 139.702 9.208ZM159.503 19C158.975 19 158.487 18.872 158.039 18.616C157.607 18.344 157.255 17.992 156.983 17.56C156.727 17.112 156.599 16.624 156.599 16.096V7.984C156.599 7.456 156.727 6.976 156.983 6.544C157.255 6.096 157.607 5.744 158.039 5.488C158.487 5.216 158.975 5.08 159.503 5.08H167.855C168.399 5.08 168.887 5.216 169.319 5.488C169.767 5.744 170.119 6.096 170.375 6.544C170.647 6.976 170.783 7.456 170.783 7.984V13.024H158.567V16.096C158.567 16.352 158.655 16.576 158.831 16.768C159.023 16.944 159.247 17.032 159.503 17.032H170.783V19H159.503ZM158.567 11.056H168.791V7.984C168.791 7.728 168.695 7.512 168.503 7.336C168.327 7.144 168.111 7.048 167.855 7.048H159.503C159.247 7.048 159.023 7.144 158.831 7.336C158.655 7.512 158.567 7.728 158.567 7.984V11.056ZM173.288 19V5.08H184.568C185.096 5.08 185.576 5.216 186.008 5.488C186.456 5.744 186.808 6.096 187.064 6.544C187.336 6.976 187.472 7.456 187.472 7.984V19H185.504V7.984C185.504 7.728 185.408 7.512 185.216 7.336C185.04 7.144 184.824 7.048 184.568 7.048H176.216C175.96 7.048 175.736 7.144 175.544 7.336C175.352 7.512 175.256 7.728 175.256 7.984V19H173.288ZM192.362 19C191.834 19 191.346 18.872 190.898 18.616C190.466 18.344 190.114 17.992 189.842 17.56C189.586 17.112 189.458 16.624 189.458 16.096V7.984C189.458 7.456 189.586 6.976 189.842 6.544C190.114 6.096 190.466 5.744 190.898 5.488C191.346 5.216 191.834 5.08 192.362 5.08H203.594V7.048H192.362C192.106 7.048 191.882 7.144 191.69 7.336C191.514 7.512 191.426 7.728 191.426 7.984V16.096C191.426 16.352 191.514 16.576 191.69 16.768C191.882 16.944 192.106 17.032 192.362 17.032H203.642V19H192.362ZM205.866 19V0.519999H207.834V5.08H217.146C217.674 5.08 218.154 5.216 218.586 5.488C219.034 5.744 219.386 6.096 219.642 6.544C219.914 6.976 220.05 7.456 220.05 7.984V19H218.082V7.984C218.082 7.728 217.986 7.512 217.794 7.336C217.618 7.144 217.402 7.048 217.146 7.048H208.794C208.538 7.048 208.314 7.144 208.122 7.336C207.93 7.512 207.834 7.728 207.834 7.984V19H205.866Z" fill="#E94D24" />
    </symbol>
</svg>