<svg width="0" height="0" class="hidden">
    <symbol fill="none" xmlns="http://www.w3.org/2000/svg" viewBox="0 0 150 36" id="logo">
        <path d="M30 0H6C2.68629 0 0 2.68629 0 6V30C0 33.3137 2.68629 36 6 36H30C33.3137 36 36 33.3137 36 30V6C36 2.68629 33.3137 0 30 0Z" fill="#647ECB" />
        <path d="M9.17728 12.4363V7.85454H27.3818V12.4363H21.0818V28.8H15.4772V12.4363H9.17728Z" fill="white" />
        <path d="M43.9772 11.2364V6.65454H62.1818V11.2364H55.8818V27.6H50.2772V11.2364H43.9772ZM69.6528 27.8863C67.9756 27.8863 66.5302 27.5659 65.3165 26.925C64.1096 26.2772 63.1789 25.35 62.5244 24.1432C61.8767 22.9296 61.5528 21.4772 61.5528 19.7863C61.5528 18.1637 61.8802 16.7454 62.5346 15.5318C63.1892 14.3182 64.1131 13.3739 65.3063 12.6989C66.4994 12.0239 67.9074 11.6864 69.5302 11.6864C70.7165 11.6864 71.7904 11.8705 72.7517 12.2387C73.7131 12.6068 74.5346 13.142 75.2165 13.8443C75.8983 14.5398 76.4233 15.3852 76.7915 16.3807C77.1596 17.3761 77.3437 18.4978 77.3437 19.7454V21.0546H63.3119V17.9454H72.1483C72.1415 17.4954 72.0256 17.1 71.8006 16.7591C71.5824 16.4113 71.2858 16.142 70.9108 15.9511C70.5426 15.7534 70.1233 15.6546 69.6528 15.6546C69.1961 15.6546 68.7767 15.7534 68.3948 15.9511C68.0131 16.142 67.7063 16.408 67.4744 16.7489C67.2494 17.0898 67.1302 17.4887 67.1165 17.9454V21.3C67.1165 21.8046 67.2222 22.2546 67.4335 22.65C67.6448 23.0454 67.9483 23.3557 68.3437 23.5807C68.7392 23.8057 69.2165 23.9182 69.7756 23.9182C70.1642 23.9182 70.5187 23.8637 70.8392 23.7546C71.1665 23.6454 71.4461 23.4887 71.6778 23.2841C71.9096 23.0728 72.0802 22.8204 72.1892 22.5272H77.3437C77.1665 23.6182 76.7472 24.5659 76.0858 25.3704C75.4244 26.1682 74.5483 26.7887 73.4574 27.2318C72.3733 27.6682 71.1052 27.8863 69.6528 27.8863ZM87.2156 27.8863C85.511 27.8863 84.052 27.5489 82.8384 26.8739C81.6247 26.192 80.694 25.2443 80.0464 24.0307C79.3986 22.8102 79.0747 21.3954 79.0747 19.7863C79.0747 18.1772 79.3986 16.7659 80.0464 15.5522C80.694 14.3318 81.6247 13.3841 82.8384 12.7091C84.052 12.0272 85.511 11.6864 87.2156 11.6864C88.7566 11.6864 90.0895 11.9659 91.2145 12.525C92.3464 13.0772 93.2225 13.8613 93.8429 14.8772C94.4634 15.8863 94.777 17.0728 94.7838 18.4363H89.5475C89.4725 17.6113 89.2338 16.9841 88.8316 16.5546C88.436 16.1182 87.9247 15.9 87.2975 15.9C86.8066 15.9 86.377 16.0432 86.0088 16.3296C85.6406 16.6091 85.3543 17.0352 85.1497 17.608C84.9451 18.1739 84.8429 18.8863 84.8429 19.7454C84.8429 20.6046 84.9451 21.3204 85.1497 21.8932C85.3543 22.4591 85.6406 22.8852 86.0088 23.1716C86.377 23.4511 86.8066 23.5909 87.2975 23.5909C87.7134 23.5909 88.0816 23.4954 88.402 23.3046C88.7225 23.1068 88.9816 22.8204 89.1793 22.4454C89.3838 22.0637 89.5066 21.6 89.5475 21.0546H94.7838C94.7634 22.4387 94.4464 23.6454 93.8327 24.675C93.219 25.6978 92.3497 26.4887 91.2247 27.0478C90.1066 27.6068 88.7701 27.8863 87.2156 27.8863ZM102.759 18.7637V27.6H97.1131V6.65454H102.554V14.8772H102.718C103.072 13.875 103.662 13.0943 104.487 12.5352C105.312 11.9693 106.304 11.6864 107.463 11.6864C108.574 11.6864 109.539 11.9386 110.357 12.4432C111.182 12.9478 111.82 13.6432 112.27 14.5296C112.727 15.4159 112.952 16.4318 112.945 17.5772V27.6H107.299V18.7637C107.306 17.9863 107.112 17.3761 106.716 16.933C106.328 16.4898 105.772 16.2682 105.049 16.2682C104.593 16.2682 104.19 16.3704 103.843 16.575C103.502 16.7728 103.236 17.0591 103.045 17.4341C102.861 17.8022 102.765 18.2454 102.759 18.7637ZM115.732 27.6V11.8909H121.091V14.8772H121.254C121.582 13.8954 122.141 13.1182 122.932 12.5454C123.722 11.9727 124.663 11.6864 125.754 11.6864C126.859 11.6864 127.811 11.9795 128.608 12.5659C129.406 13.1454 129.887 13.9159 130.05 14.8772H130.213C130.48 13.9159 131.046 13.1454 131.911 12.5659C132.778 11.9795 133.793 11.6864 134.959 11.6864C136.466 11.6864 137.687 12.1704 138.62 13.1387C139.561 14.1068 140.032 15.3954 140.032 17.0046V27.6H134.387V18.4363C134.387 17.7478 134.213 17.2091 133.865 16.8204C133.517 16.425 133.05 16.2272 132.463 16.2272C131.884 16.2272 131.424 16.425 131.083 16.8204C130.748 17.2091 130.582 17.7478 130.582 18.4363V27.6H125.182V18.4363C125.182 17.7478 125.008 17.2091 124.661 16.8204C124.313 16.425 123.846 16.2272 123.259 16.2272C122.87 16.2272 122.537 16.3159 122.257 16.4932C121.978 16.6704 121.759 16.9261 121.602 17.2602C121.452 17.5874 121.378 17.9796 121.378 18.4363V27.6H115.732ZM142.816 27.6V11.8909H148.462V27.6H142.816ZM145.639 10.2545C144.875 10.2545 144.221 10.0023 143.675 9.49772C143.13 8.99318 142.858 8.38637 142.858 7.67728C142.858 6.96818 143.13 6.36137 143.675 5.85682C144.221 5.35228 144.875 5.1 145.639 5.1C146.41 5.1 147.064 5.35228 147.602 5.85682C148.148 6.36137 148.421 6.96818 148.421 7.67728C148.421 8.38637 148.148 8.99318 147.602 9.49772C147.064 10.0023 146.41 10.2545 145.639 10.2545Z" fill="white" />
    </symbol>
</svg>